<svg width="428" height="523" viewBox="0 0 428 523" fill="none" xmlns="http://www.w3.org/2000/svg">
<path fill-rule="evenodd" clip-rule="evenodd" d="M69.3335 44.5932C85.1199 58.8032 101.48 73.5292 133.97 73.5292C165.797 73.5292 181.689 63.468 197.36 53.5468C212.602 43.8978 227.634 34.3811 256.912 34.3811C292.833 34.3811 320.445 48.7067 342.262 60.0261C356.512 67.4188 368.289 73.5292 378.296 73.5292C403.213 73.5292 424.67 39.5932 428.765 33.1166L428.954 32.8179C428.954 77.6079 428.713 160.179 428.473 242.284C428.34 287.844 428.207 333.261 428.116 372H429V523H0V418.827V372V18.7067C4.55952 18.6084 9.2514 18.5461 14.0694 18.5461C40.3966 18.5461 54.6159 31.3454 69.3335 44.5932Z" fill="url(#paint0_linear_85_302)"/>
<path fill-rule="evenodd" clip-rule="evenodd" d="M69.3335 44.5932C85.1199 58.8032 101.48 73.5292 133.97 73.5292C165.797 73.5292 181.689 63.468 197.36 53.5468C212.602 43.8978 227.634 34.3811 256.912 34.3811C292.833 34.3811 320.445 48.7067 342.262 60.0261C356.512 67.4188 368.289 73.5292 378.296 73.5292C403.213 73.5292 424.67 39.5932 428.765 33.1166L428.954 32.8179C428.954 77.6079 428.713 160.179 428.473 242.284C428.34 287.844 428.207 333.261 428.116 372H429V523H0V418.827V372V18.7067C4.55952 18.6084 9.2514 18.5461 14.0694 18.5461C40.3966 18.5461 54.6159 31.3454 69.3335 44.5932Z" fill="#8A422D"/>
<path opacity="0.498628" d="M0 523V36.3264C4.5375 36.2373 9.22719 36.1785 14.0694 36.1785C68.636 36.1785 71.1894 86.6964 133.97 86.6964C196.751 86.6964 197.529 50.7275 256.912 50.7275C316.294 50.7275 352.967 86.6964 378.296 86.6964C401.935 86.6964 422.46 55.7525 428 47.4086" stroke="white" stroke-width="1.8"/>
<defs>
<linearGradient id="paint0_linear_85_302" x1="0" y1="18.5461" x2="0" y2="534.57" gradientUnits="userSpaceOnUse">
<stop stop-color="#A6D8BE"/>
<stop offset="1" stop-color="#FCEFBA"/>
</linearGradient>
</defs>
</svg>
