<svg width="1440" height="637" viewBox="0 0 1440 637" fill="none" xmlns="http://www.w3.org/2000/svg">
<path fill-rule="evenodd" clip-rule="evenodd" d="M197.453 45.0223C97.6133 46.5411 27.9011 47.6015 0 27.541V461V556.267V637H1440V549.888V461V60.916L1439.48 61.2682C1428.16 68.9047 1368.84 108.916 1299.96 108.916C1272.3 108.916 1239.74 101.712 1200.35 92.9953C1140.04 79.6494 1063.71 62.7591 964.406 62.7591C883.47 62.7591 841.916 73.9795 799.783 85.356C756.462 97.0535 712.529 108.916 624.547 108.916C534.731 108.916 489.506 91.5535 445.866 74.7995C405.18 59.1799 365.873 44.0891 293.094 44.0891C258.804 44.0891 226.825 44.5756 197.453 45.0223Z" fill="url(#paint0_linear_85_99)"/>
<path fill-rule="evenodd" clip-rule="evenodd" d="M197.453 45.0223C97.6133 46.5411 27.9011 47.6015 0 27.541V461V556.267V637H1440V549.888V461V60.916L1439.48 61.2682C1428.16 68.9047 1368.84 108.916 1299.96 108.916C1272.3 108.916 1239.74 101.712 1200.35 92.9953C1140.04 79.6494 1063.71 62.7591 964.406 62.7591C883.47 62.7591 841.916 73.9795 799.783 85.356C756.462 97.0535 712.529 108.916 624.547 108.916C534.731 108.916 489.506 91.5535 445.866 74.7995C405.18 59.1799 365.873 44.0891 293.094 44.0891C258.804 44.0891 226.825 44.5756 197.453 45.0223Z" fill="#8A422D"/>
<path fill-rule="evenodd" clip-rule="evenodd" d="M197.453 45.0223C97.6133 46.5411 27.9011 47.6015 0 27.541V461V556.267V637H1440V549.888V461V60.916L1439.48 61.2682C1428.16 68.9047 1368.84 108.916 1299.96 108.916C1272.3 108.916 1239.74 101.712 1200.35 92.9953C1140.04 79.6494 1063.71 62.7591 964.406 62.7591C883.47 62.7591 841.916 73.9795 799.783 85.356C756.462 97.0535 712.529 108.916 624.547 108.916C534.731 108.916 489.506 91.5535 445.866 74.7995C405.18 59.1799 365.873 44.0891 293.094 44.0891C258.804 44.0891 226.825 44.5756 197.453 45.0223Z" fill="url(#paint1_linear_85_99)"/>
<path fill-rule="evenodd" clip-rule="evenodd" d="M197.453 45.0223C97.6133 46.5411 27.9011 47.6015 0 27.541V461V556.267V637H1440V549.888V461V60.916L1439.48 61.2682C1428.16 68.9047 1368.84 108.916 1299.96 108.916C1272.3 108.916 1239.74 101.712 1200.35 92.9953C1140.04 79.6494 1063.71 62.7591 964.406 62.7591C883.47 62.7591 841.916 73.9795 799.783 85.356C756.462 97.0535 712.529 108.916 624.547 108.916C534.731 108.916 489.506 91.5535 445.866 74.7995C405.18 59.1799 365.873 44.0891 293.094 44.0891C258.804 44.0891 226.825 44.5756 197.453 45.0223Z" fill="#8A422D"/>
<path opacity="0.103144" d="M0 1.73291C58.5039 5.53945 141.853 22.878 250.403 22.878C416.331 22.878 424.096 92.9735 615.002 92.9735C805.907 92.9735 808.275 43.0653 988.847 43.0653C1169.42 43.0653 1227.98 92.9735 1305 92.9735C1345.64 92.9735 1398.01 70.8842 1440 48.9611" stroke="black" stroke-width="2.2"/>
<path opacity="0.103144" d="M-0.5 1.70068C58.0286 5.44041 141.543 22.878 250.403 22.878C416.331 22.878 424.096 92.9735 615.002 92.9735C805.907 92.9735 808.275 43.0654 988.847 43.0654C1169.42 43.0654 1227.98 92.9735 1305 92.9735C1345.64 92.9735 1398.01 70.8842 1440 48.9612" stroke="black" stroke-width="2.2"/>
<path opacity="0.498628" d="M0 43.0654C44.9375 73.6904 142.25 64.8781 293.094 64.8781C443.938 64.8781 450.996 124.44 624.547 124.44C798.098 124.44 800.25 82.0319 964.406 82.0319C1128.56 82.0319 1229.94 124.44 1299.96 124.44C1369.98 124.44 1430.12 82.5536 1440 76.4404" stroke="white" stroke-width="1.8"/>
<defs>
<linearGradient id="paint0_linear_85_99" x1="0" y1="27.541" x2="0" y2="652.878" gradientUnits="userSpaceOnUse">
<stop stop-color="#A6D8BE"/>
<stop offset="1" stop-color="#FCEFBA"/>
</linearGradient>
<linearGradient id="paint1_linear_85_99" x1="0" y1="27.541" x2="0" y2="652.878" gradientUnits="userSpaceOnUse">
<stop stop-color="#A6D8BE"/>
<stop offset="1" stop-color="#FCEFBA"/>
</linearGradient>
</defs>
</svg>
