<?xml version="1.0" encoding="iso-8859-1"?>
<!-- Generator: Adobe Illustrator 17.1.0, SVG Export Plug-In . SVG Version: 6.00 Build 0)  -->
<!DOCTYPE svg PUBLIC "-//W3C//DTD SVG 1.1//EN" "http://www.w3.org/Graphics/SVG/1.1/DTD/svg11.dtd">
<svg version="1.1" id="Capa_1" xmlns="http://www.w3.org/2000/svg" xmlns:xlink="http://www.w3.org/1999/xlink" x="0px" y="0px"
	 viewBox="0 0 296.001 296.001" style="enable-background:new 0 0 296.001 296.001;" xml:space="preserve">
<g>
	<path d="M290.664,148.038c-5.78-10.667-15.653-18.438-27.799-21.882c-4.126-1.17-8.375-1.764-12.629-1.764
		c-7.386,0-14.474,1.792-20.789,4.997c0.021-3.326,0.004-6.442-0.013-9.328c-0.01-1.766-0.02-3.454-0.02-5.061c0-4.418-3.582-8-8-8
		H8.042c-4.418,0-8,3.582-8,8c0,1.606-0.01,3.295-0.02,5.061c-0.179,31.228-0.512,89.354,50.826,150.104
		c1.521,1.798,3.756,2.836,6.11,2.836h115.539c2.355,0,4.59-1.038,6.11-2.836c4.799-5.678,9.145-11.334,13.083-16.946
		c10.572-1.611,85.224-14.84,101.98-68.771C297.602,171.8,296.533,158.869,290.664,148.038z M60.71,257.001
		c-43.783-53.478-44.84-103.064-44.703-134H213.45c0.137,30.935-0.92,80.522-44.703,134H60.71z M278.393,179.699
		c-10.523,33.866-52.082,48.877-74.857,54.675c17.735-31.75,23.395-61.319,25.152-84.879c5.563-5.662,13.268-9.103,21.548-9.103
		c2.778,0,5.559,0.39,8.264,1.156c7.962,2.258,14.389,7.27,18.097,14.112C280.449,162.77,281.07,171.082,278.393,179.699z"/>
	<path d="M72.729,82.001c0,4.418,3.582,8,8,8s8-3.582,8-8c0-2.462,0.414-3.341,1.238-5.094c1.166-2.477,2.762-5.868,2.762-11.907
		c0-6.039-1.596-9.431-2.762-11.907c-0.824-1.753-1.238-2.632-1.238-5.094c0-2.461,0.414-3.341,1.238-5.093
		c1.166-2.476,2.762-5.867,2.762-11.905c0-4.418-3.582-8-8-8s-8,3.582-8,8c0,2.461-0.414,3.341-1.238,5.093
		c-1.166,2.476-2.762,5.867-2.762,11.905c0,6.038,1.596,9.43,2.762,11.906c0.824,1.753,1.238,2.632,1.238,5.095
		c0,2.462-0.414,3.342-1.238,5.095C74.324,72.571,72.729,75.963,72.729,82.001z"/>
	<path d="M104.729,82.001c0,4.418,3.582,8,8,8s8-3.582,8-8c0-2.462,0.414-3.341,1.238-5.094c1.166-2.477,2.762-5.868,2.762-11.907
		c0-6.039-1.596-9.431-2.762-11.907c-0.824-1.753-1.238-2.632-1.238-5.094c0-2.461,0.414-3.341,1.238-5.093
		c1.166-2.476,2.762-5.867,2.762-11.905c0-4.418-3.582-8-8-8s-8,3.582-8,8c0,2.461-0.414,3.341-1.238,5.093
		c-1.166,2.476-2.762,5.867-2.762,11.905c0,6.038,1.596,9.43,2.762,11.906c0.824,1.753,1.238,2.632,1.238,5.095
		c0,2.462-0.414,3.342-1.238,5.095C106.324,72.571,104.729,75.963,104.729,82.001z"/>
	<path d="M136.729,82.001c0,4.418,3.582,8,8,8s8-3.582,8-8c0-2.462,0.414-3.341,1.238-5.094c1.166-2.477,2.762-5.868,2.762-11.907
		c0-6.039-1.596-9.431-2.762-11.907c-0.824-1.753-1.238-2.632-1.238-5.094c0-2.461,0.414-3.341,1.238-5.093
		c1.166-2.476,2.762-5.867,2.762-11.905c0-4.418-3.582-8-8-8s-8,3.582-8,8c0,2.461-0.414,3.341-1.238,5.093
		c-1.166,2.476-2.762,5.867-2.762,11.905c0,6.038,1.596,9.43,2.762,11.906c0.824,1.753,1.238,2.632,1.238,5.095
		c0,2.462-0.414,3.342-1.238,5.095C138.324,72.571,136.729,75.963,136.729,82.001z"/>
</g>
<g>
</g>
<g>
</g>
<g>
</g>
<g>
</g>
<g>
</g>
<g>
</g>
<g>
</g>
<g>
</g>
<g>
</g>
<g>
</g>
<g>
</g>
<g>
</g>
<g>
</g>
<g>
</g>
<g>
</g>
</svg>
