<?xml version="1.0" encoding="iso-8859-1"?>
<!-- Generator: Adobe Illustrator 19.0.0, SVG Export Plug-In . SVG Version: 6.00 Build 0)  -->
<svg version="1.1" id="Layer_1" xmlns="http://www.w3.org/2000/svg" xmlns:xlink="http://www.w3.org/1999/xlink" x="0px" y="0px"
	 viewBox="0 0 248.047 248.047" style="enable-background:new 0 0 248.047 248.047;" xml:space="preserve">
<g>
	<g>
		<g>
			<path d="M128.349,65.103c-11.628,0-21.088,9.46-21.088,21.088s9.46,21.088,21.088,21.088s21.088-9.46,21.088-21.088
				S139.977,65.103,128.349,65.103z M128.349,105.007c-10.376,0-18.82-8.44-18.82-18.82s8.44-18.82,18.82-18.82
				s18.82,8.44,18.82,18.82S138.725,105.007,128.349,105.007z"/>
			<path d="M128.049,72.739c-3.676,0.148-7.076,1.72-9.568,4.42s-3.784,6.216-3.636,9.892c0.02,0.488,0.42,0.868,0.908,0.868
				c0.012,0,0.024,0,0.036,0c0.5-0.02,0.888-0.44,0.868-0.944c-0.128-3.192,0.992-6.244,3.156-8.588s5.116-3.708,8.308-3.836
				c0.5-0.02,0.888-0.44,0.868-0.944C128.973,73.107,128.633,72.707,128.049,72.739z"/>
			<path d="M78.753,141.043c-0.028-1.568-0.052-3.184-0.748-4.716c-1.572-3.464-5.28-4.352-8.864-5.212
				c-1.14-0.272-2.284-0.544-3.352-0.908c-2.168-0.728-3.476-1.652-4.248-2.996c-1.084-1.904-0.756-4.228-0.412-6.684
				c0.224-1.588,0.456-3.232,0.32-4.856c-0.276-3.276-2.176-6.38-4.956-8.096c-0.84-0.52-1.744-0.912-2.616-1.292
				c-1.44-0.628-2.804-1.22-3.712-2.296c-0.348-0.408-0.952-0.456-1.36-0.112s-0.456,0.952-0.112,1.36
				c1.2,1.416,2.836,2.128,4.416,2.816c0.848,0.368,1.648,0.72,2.372,1.168c2.268,1.4,3.82,3.936,4.044,6.616
				c0.12,1.412-0.096,2.944-0.308,4.424c-0.376,2.672-0.764,5.436,0.648,7.912c1.324,2.312,3.664,3.316,5.304,3.868
				c1.14,0.384,2.348,0.672,3.52,0.952c3.28,0.788,6.38,1.532,7.56,4.136c0.528,1.164,0.552,2.516,0.576,3.952
				c0.016,1.08,0.036,2.196,0.276,3.3c0.096,0.452,0.496,0.76,0.94,0.76c0.068,0,0.136-0.008,0.204-0.024
				c0.52-0.112,0.852-0.624,0.74-1.144C78.789,143.051,78.769,142.075,78.753,141.043z"/>
			<path d="M244.493,94.539c-2.952-2.696-6.504-3.816-10.524-3.344c-2.948,0.348-5.604,1.52-7.404,2.588
				c-5.228-19.368-15.412-37.124-30.032-51.632c-21.756-21.584-50.58-33.448-81.204-33.448h-0.476
				c-30.804,0.124-59.716,12.24-81.408,34.108C11.753,64.679-0.127,93.687,0.001,124.491c0.128,30.804,12.24,59.716,34.108,81.408
				c21.756,21.58,50.576,33.448,81.2,33.444h0.48c30.804-0.124,59.716-12.236,81.408-34.104
				c21.268-21.444,33.072-49.756,33.408-79.888c-0.54,0.596-1.192,0.992-1.884,1.292c8.152-6.288,14.152-10.668,15.812-11.872
				c0.684-0.508,2.92-4.396,3.42-9.016C248.401,101.507,247.245,97.671,244.493,94.539z M226.557,128.915
				c-1.188,27.744-12.5,53.684-32.188,73.528c-20.948,21.116-48.864,32.812-78.604,32.932c-29.612,0.08-57.752-11.348-78.868-32.296
				c-21.116-20.948-32.812-48.864-32.932-78.604c-0.12-29.744,11.348-57.752,32.296-78.868
				c20.948-21.116,48.864-32.812,78.604-32.932c0.156,0,0.304,0,0.456,0c52.02,0,95.848,35.904,107.976,84.292
				c-1.164,1.74-3.148,4.68-5.76,8.46c-9.3-48.104-51.62-84.572-102.388-84.572c-57.556,0-104.384,46.828-104.384,104.384
				c0,57.556,46.828,104.38,104.384,104.38c54.54,0,99.392-42.06,103.948-95.44c2.732-2.176,5.356-4.24,7.8-6.132
				C226.781,128.335,226.693,128.643,226.557,128.915z M73.897,173.767c-1.304-1.64-3.104-2.492-4.696-3.24
				c-0.756-0.356-1.52-0.712-2.208-1.168c-1.964-1.296-3.264-3.572-3.392-5.944c-0.068-1.296,0.172-2.696,0.424-4.18
				c0.464-2.696,0.988-5.756-0.516-8.584c-1.908-3.576-5.836-4.648-9.308-5.592c-3.14-0.856-5.852-1.592-6.76-3.772
				c-0.412-0.984-0.396-2.236-0.376-3.56c0.016-1.128,0.028-2.296-0.192-3.508c-0.72-3.872-3.448-6.456-6.088-8.956
				c-2.144-2.032-4.168-3.952-4.876-6.356c-0.556-1.896-0.268-4.028,0.036-6.288c0.116-0.848,0.228-1.696,0.304-2.536
				c0.424-4.848-1.148-8.744-4.208-10.42c-1.236-0.676-2.54-0.904-3.692-1.1c-0.076-0.012-0.152-0.024-0.228-0.04
				c2.064-1.076,3.984-2.108,5.86-3.128c0.248,0.096,0.464,0.24,0.724,0.308c0.58,0.156,1.172,0.256,1.764,0.36
				c1.016,0.176,1.98,0.34,2.788,0.784c2.968,1.628,2.808,6.212,2.688,7.576c-0.068,0.8-0.176,1.6-0.288,2.404
				c-0.332,2.464-0.676,5.012,0.056,7.508c0.928,3.168,3.34,5.456,5.676,7.668c2.404,2.276,4.672,4.428,5.216,7.356
				c0.172,0.924,0.16,1.904,0.144,2.936c-0.02,1.564-0.04,3.18,0.604,4.732c1.464,3.508,5.148,4.508,8.708,5.48
				c3.172,0.864,6.172,1.68,7.48,4.136c1.028,1.932,0.632,4.248,0.212,6.696c-0.272,1.58-0.552,3.212-0.464,4.84
				c0.18,3.284,1.984,6.44,4.712,8.244c0.824,0.544,1.716,0.964,2.576,1.372c1.42,0.672,2.768,1.308,3.644,2.408
				c1.888,2.372,0.98,6.132,0.108,8.832c-1.076,3.324-2.292,7.092-0.624,10.424c0.348,0.692,0.812,1.332,1.4,1.936
				c-2.416,1.656-4.448,3.072-5.772,4.024c-0.764-0.6-1.292-1.212-1.624-1.876c-1.128-2.252-0.152-5.272,0.824-8.276
				C75.585,181.995,76.669,177.247,73.897,173.767z M43.781,142.823c1.66,3.964,5.76,5.084,9.38,6.068
				c2.956,0.804,5.748,1.568,6.848,3.632c0.868,1.624,0.516,3.672,0.108,6.044c-0.28,1.636-0.572,3.324-0.476,5.068
				c0.196,3.6,2.172,7.068,5.168,9.04c0.844,0.556,1.772,1.004,2.7,1.44c1.368,0.648,2.552,1.204,3.284,2.124
				c1.204,1.512,1.192,3.992-0.064,7.88c-0.036,0.116-0.076,0.24-0.112,0.356c-3.412-2.412-6.684-5.06-9.708-8.06
				c-12.916-12.812-20.532-29.484-21.976-47.424c1.928,1.856,3.624,3.696,4.04,5.952c0.152,0.828,0.14,1.752,0.128,2.732
				C43.077,139.271,43.053,141.075,43.781,142.823z M82.197,179.543c0.984-3.044,2.004-7.444-0.46-10.544
				c-1.156-1.452-2.768-2.216-4.332-2.952c-0.836-0.396-1.628-0.768-2.336-1.236c-2.228-1.472-3.704-4.056-3.848-6.74
				c-0.076-1.412,0.184-2.936,0.436-4.412c0.456-2.664,0.928-5.416-0.412-7.928c-1.7-3.188-5.248-4.156-8.676-5.088
				c-3.256-0.888-6.332-1.724-7.436-4.36c-0.492-1.18-0.476-2.532-0.456-3.964c0.012-1.084,0.028-2.2-0.176-3.312
				c-0.656-3.544-3.264-6.016-5.788-8.404c-2.248-2.128-4.368-4.14-5.152-6.808c-0.616-2.1-0.316-4.34,0.004-6.708
				c0.112-0.832,0.228-1.668,0.3-2.496c0.388-4.432-0.992-7.96-3.684-9.436c-1.088-0.596-2.256-0.8-3.384-0.992
				c-0.14-0.024-0.276-0.06-0.42-0.084c7.392-4.116,13.948-8.16,22.816-13.772c0.028,0.052,0.06,0.1,0.084,0.152
				c1.192,2.22,0.308,5.268-0.576,8.3c-0.956,3.296-1.9,8.076,0.976,11.468c1.352,1.6,3.176,2.396,4.788,3.096
				c0.768,0.332,1.54,0.664,2.244,1.096c2,1.236,3.364,3.472,3.568,5.836c0.108,1.296-0.088,2.704-0.3,4.196
				c-0.384,2.712-0.816,5.784,0.772,8.564c2.012,3.516,5.976,4.468,9.472,5.304c3.164,0.756,5.896,1.416,6.868,3.564
				c0.44,0.972,0.46,2.22,0.484,3.544c0.02,1.128,0.04,2.296,0.3,3.5c0.832,3.848,3.64,6.348,6.352,8.768
				c2.204,1.968,4.284,3.824,5.064,6.208c0.612,1.876,0.388,4.016,0.152,6.28c-0.088,0.852-0.176,1.708-0.228,2.552
				c-0.28,4.86,1.412,8.704,4.52,10.288c1.008,0.512,2.056,0.736,3.028,0.884c-2.612,1.812-6.404,4.388-10.36,7.076
				c-0.432-0.388-0.796-0.812-1.072-1.292c-1.088-1.904-0.76-4.228-0.412-6.688c0.224-1.588,0.456-3.228,0.32-4.852
				c-0.276-3.28-2.172-6.384-4.956-8.1c-0.84-0.52-1.744-0.912-2.616-1.292c-1.44-0.628-2.804-1.224-3.712-2.296
				c-0.348-0.408-0.952-0.452-1.36-0.112c-0.408,0.344-0.456,0.952-0.112,1.36c1.2,1.416,2.832,2.128,4.416,2.82
				c0.848,0.368,1.652,0.72,2.376,1.168c2.268,1.4,3.82,3.936,4.044,6.62c0.12,1.408-0.096,2.94-0.304,4.42
				c-0.376,2.676-0.768,5.44,0.648,7.916c0.304,0.532,0.7,0.992,1.132,1.428c-0.456,0.308-0.908,0.616-1.364,0.924
				c-3.704,2.512-7.456,5.056-10.688,7.268c-0.564-0.536-1.008-1.088-1.308-1.684C80.121,185.967,81.161,182.743,82.197,179.543z
				 M95.653,186.291c7.86-5.332,15.288-10.368,16.848-11.6l2.156-1.704l-2.296-1.508c-0.74-0.488-1.596-0.852-2.484-1.064
				c-0.612-0.144-1.236-0.236-1.864-0.324c-0.936-0.132-1.82-0.256-2.488-0.596c-1.956-1-2.5-4.024-2.36-6.524
				c0.044-0.784,0.128-1.572,0.212-2.364c0.272-2.584,0.552-5.248-0.324-7.928c-1.108-3.4-3.696-5.708-6.196-7.936
				c-2.34-2.088-4.556-4.064-5.112-6.648c-0.176-0.82-0.192-1.748-0.208-2.728c-0.024-1.592-0.056-3.4-0.836-5.12
				c-1.776-3.916-5.912-4.908-9.556-5.78c-2.98-0.716-5.792-1.388-6.952-3.416c-0.916-1.6-0.624-3.656-0.288-6.04
				c0.232-1.644,0.472-3.344,0.324-5.084c-0.304-3.592-2.384-6.996-5.432-8.88c-0.86-0.532-1.804-0.952-2.744-1.36
				c-1.388-0.604-2.584-1.128-3.344-2.02c-1.248-1.476-1.308-3.956-0.168-7.88c0.98-3.368,2.196-7.56,0.236-11.208
				c-0.452-0.844-1.056-1.604-1.836-2.328l-1.12-1.036l-1.288,0.816c-2.452,1.556-4.68,2.956-6.832,4.304
				c2.584-3.784,5.484-7.388,8.78-10.708c14.204-14.32,33.136-22.252,53.308-22.332c0.108,0,0.212,0,0.316,0
				c8.804,0,17.34,1.6,25.396,4.484c-6.656,4.42-13.376,2.896-20.916,1.16c-8.732-2.004-18.62-4.284-28.424,4.348
				c-6.096,5.364-8.48,12.94-9.404,18.348c-1.964,11.484,1.028,26.02,12.244,30.796c1.756,0.748,3.68,1.268,5.54,1.768
				c4.948,1.336,8.024,2.36,8.972,5.34c0.676,2.124-0.184,4.564-1.096,7.148c-0.256,0.732-0.512,1.46-0.74,2.18
				c-2.232,7.18-1,14.788,3.208,19.856c3.056,3.676,7.596,5.656,11.996,5.656c2.664,0,5.276-0.724,7.476-2.24
				c3.196-2.2,5.04-5.508,6.824-8.704c1.404-2.52,2.732-4.904,4.632-6.636c4.896-4.464,12.048-3.768,19.62-3.036
				c2.476,0.24,5.036,0.488,7.496,0.536c9.124,0.164,17.172-2.896,22.532-8.428c0.04,0.876,0.136,1.748,0.14,2.632
				c0.04,9.316-1.68,18.344-4.872,26.804c-6.148,7.516-12.528,14.88-18.792,21.364c-6.708-3.536-16.308-1.424-20.936,3.192
				l-17.776,21.028l-2.472,2.576c-3.408,0.488-6.856,0.836-10.36,0.852c-0.108,0-0.212,0-0.316,0c-9.768,0-19.2-1.984-28.004-5.516
				C89.037,190.783,92.357,188.527,95.653,186.291z M177.653,84.903c1.636,2.848,4.104,4.8,6.496,6.688
				c1.712,1.352,3.332,2.632,4.584,4.176c4.324,5.324,3.776,14.46-1.216,20.364c-4.468,5.28-12.156,8.292-20.508,8.164
				c-2.308-0.044-4.68-0.276-7.192-0.516c-8.108-0.788-16.496-1.6-22.7,4.064c-2.38,2.172-3.932,4.952-5.432,7.644
				c-1.632,2.924-3.168,5.688-5.6,7.36c-4.1,2.824-10.572,1.6-14.124-2.676c-3.304-3.976-4.272-10.3-2.468-16.116
				c0.208-0.672,0.448-1.352,0.688-2.036c1.04-2.948,2.22-6.292,1.14-9.692c-1.68-5.272-7.028-6.716-11.744-7.988
				c-1.808-0.488-3.516-0.948-5.016-1.588c-8.804-3.752-11.628-16.14-9.868-26.444c0.816-4.772,2.884-11.428,8.1-16.02
				c8.268-7.272,16.34-5.416,24.888-3.452c9.36,2.148,19.964,4.588,29.896-7.028c4.04-4.724,14.056-5.084,21.428-0.768
				c4.184,2.444,10.576,8.268,6.364,19.788C173.681,73.451,174.529,79.463,177.653,84.903z M191.869,122.491
				c-0.008-1.768-0.104-3.524-0.24-5.268c5.2-7.368,5.424-17.548,0.208-23.972c-1.532-1.892-3.404-3.368-5.212-4.796
				c-2.188-1.728-4.256-3.36-5.504-5.54c-2.54-4.428-3.288-9.184-1.996-12.716c3.748-10.256,0.72-19.46-8.104-24.616
				c-9.072-5.308-21.204-4.56-26.488,1.624c-0.964,1.124-1.92,2.08-2.88,2.916c-8.696-3.3-17.98-5.096-27.56-5.096h-0.324
				c-20.776,0.084-40.276,8.252-54.908,23.004c-4.544,4.58-8.396,9.648-11.604,15.052c-8.036,4.932-14.9,8.844-24.488,13.732
				l-2.192,1.116l1.556,1.908c0.848,1.036,2.188,1.86,3.668,2.252c0.608,0.164,1.236,0.276,1.864,0.384
				c0.928,0.164,1.808,0.312,2.464,0.672c1.928,1.056,2.38,4.1,2.164,6.596c-0.068,0.78-0.176,1.568-0.28,2.352
				c-0.348,2.572-0.708,5.232,0.084,7.936c0.792,2.692,2.512,4.732,4.392,6.604c0.94,19.448,8.908,37.596,22.82,51.396
				c3.292,3.268,6.892,6.092,10.632,8.668c-0.756,2.764-1.18,5.82,0.22,8.62c0.812,1.624,2.136,2.968,4.164,4.224l1.172,0.728
				l1.088-0.844c1.036-0.804,3.724-2.68,7.196-5.06c9.468,4.024,19.7,6.224,30.292,6.224h0.324c2.656-0.012,5.272-0.236,7.872-0.536
				l-0.636,0.664c-0.776,0.808-1.18,1.88-1.14,3.008c0.04,1.12,0.512,2.168,1.332,2.948c0.832,0.796,1.86,1.248,3.06,1.2
				c1.108-0.024,2.14-0.472,2.896-1.264l9.236-9.636c1.796-0.56,3.572-1.164,5.32-1.852l-2.304,2.52l-10.348,10.796
				c-1.528,1.596-1.516,4.14,0.136,5.892c1.712,1.472,4.248,1.376,5.78-0.22l10.324-10.772l13.208-13.144
				c0.252-0.252,0.584-0.396,0.94-0.396c0.288,0.044,0.68,0.14,0.94,0.404c0.268,0.264,0.34,0.584,0.34,0.844l-23.852,24.884
				c-0.776,0.808-1.176,1.876-1.136,3.012c0.04,1.116,0.508,2.164,1.324,2.94c0.836,0.804,1.912,1.2,2.98,1.2
				c1.092,0,2.176-0.42,2.984-1.26l5.524-5.764l20.404-18.796c4.34-4.736,6.044-14.416,2.22-20.968
				c13.472-14.172,30.936-29.028,45.436-40.644c-5.236,51.74-48.992,92.268-102.088,92.268c-56.62,0-102.684-46.064-102.684-102.68
				c0-56.616,46.064-102.684,102.684-102.684c50.508,0,92.544,36.684,101.044,84.792c-6.584,9.464-16.476,23.216-27.484,37.02
				C190.753,137.339,191.897,130.015,191.869,122.491z M140.521,193.319l11.112-11.592c0.296-0.012,0.588,0.052,0.876,0.32
				c0.26,0.236,0.416,0.556,0.428,0.904c0.016,0.356-0.108,0.696-0.356,0.964l-6.52,7.132
				C144.245,191.875,142.401,192.639,140.521,193.319z M242.693,112.599c-4.76,3.448-47.292,34.5-73.712,62.556l-0.796,0.844
				l0.672,0.948c3.808,5.368,2.396,14.3-1.276,18.316l-20.384,18.772l-5.584,5.828c-0.508,0.528-1.384,0.52-1.956-0.024
				c-0.276-0.264-0.436-0.62-0.452-1c-0.012-0.36,0.112-0.696,0.352-0.948l24.452-25.512l0.084-0.392
				c0.308-1.408-0.096-2.828-1.064-3.788c-0.78-0.796-1.82-1.236-2.932-1.24c-0.004,0-0.012,0-0.02,0
				c-1.112,0-2.156,0.432-2.944,1.224l-13.224,13.168l-10.348,10.796c-0.488,0.508-1.32,0.52-1.776,0.136
				c-0.512-0.548-0.532-1.376-0.048-1.888l10.372-10.82l12.568-13.748c0.76-0.828,1.152-1.896,1.1-3.012
				c-0.052-1.108-0.536-2.132-1.348-2.86c-1.008-0.94-2.452-1.284-3.844-0.92l-0.388,0.1l-24.456,25.508
				c-0.236,0.244-0.556,0.384-0.912,0.392c-0.38-0.052-0.752-0.136-1.036-0.412c-0.284-0.272-0.448-0.628-0.46-1.004
				c-0.012-0.356,0.112-0.692,0.352-0.944l5.644-5.892l17.756-21.004c3.932-3.928,12.8-5.72,18.328-2.14l0.976,0.632l0.808-0.832
				c26.804-27.472,56.108-71.348,59.36-76.26l-0.012-0.012c0.404-0.316,9.24-6.752,15.932-0.652
				C248.525,103.443,242.705,112.595,242.693,112.599z"/>
		</g>
	</g>
</g>
<g>
</g>
<g>
</g>
<g>
</g>
<g>
</g>
<g>
</g>
<g>
</g>
<g>
</g>
<g>
</g>
<g>
</g>
<g>
</g>
<g>
</g>
<g>
</g>
<g>
</g>
<g>
</g>
<g>
</g>
</svg>
