<svg width="85" height="84" viewBox="0 0 85 84" fill="none" xmlns="http://www.w3.org/2000/svg">
<path d="M57.6618 43.2213C57.9092 43.4623 58.1054 43.7485 58.2393 44.0636C58.3733 44.3787 58.4422 44.7165 58.4422 45.0577C58.4422 45.3988 58.3733 45.7366 58.2393 46.0517C58.1054 46.3668 57.9092 46.6531 57.6618 46.894L41.7243 62.4561C41.4776 62.6976 41.1845 62.8892 40.8617 63.02C40.539 63.1507 40.1931 63.2181 39.8437 63.2181C39.4943 63.2181 39.1483 63.1507 38.8256 63.02C38.5029 62.8892 38.2098 62.6976 37.9631 62.4561L29.9943 54.675C29.7473 54.4339 29.5514 54.1476 29.4178 53.8325C29.2841 53.5174 29.2153 53.1797 29.2153 52.8387C29.2153 52.4977 29.2841 52.16 29.4178 51.8449C29.5514 51.5298 29.7473 51.2435 29.9943 51.0024C30.4931 50.5154 31.1696 50.2417 31.8749 50.2417C32.2242 50.2417 32.57 50.3089 32.8927 50.4394C33.2154 50.5699 33.5086 50.7612 33.7556 51.0024L39.8437 56.9523L53.9006 43.2213C54.1473 42.9798 54.4404 42.7882 54.7631 42.6574C55.0858 42.5267 55.4318 42.4594 55.7812 42.4594C56.1306 42.4594 56.4765 42.5267 56.7992 42.6574C57.1219 42.7882 57.4151 42.9798 57.6618 43.2213Z" fill="#B95346"/>
<path d="M18.5938 0.965088C19.2982 0.965088 19.9739 1.23835 20.472 1.72476C20.9701 2.21117 21.25 2.87088 21.25 3.55877V6.15245H63.75V3.55877C63.75 2.87088 64.0299 2.21117 64.528 1.72476C65.0261 1.23835 65.7018 0.965088 66.4062 0.965088C67.1107 0.965088 67.7864 1.23835 68.2845 1.72476C68.7826 2.21117 69.0625 2.87088 69.0625 3.55877V6.15245H74.375C77.1929 6.15245 79.8954 7.24549 81.888 9.19113C83.8806 11.1368 85 13.7756 85 16.5272V73.5881C85 76.3396 83.8806 78.9785 81.888 80.9241C79.8954 82.8698 77.1929 83.9628 74.375 83.9628H10.625C7.80707 83.9628 5.10456 82.8698 3.11199 80.9241C1.11942 78.9785 0 76.3396 0 73.5881V16.5272C0 13.7756 1.11942 11.1368 3.11199 9.19113C5.10456 7.24549 7.80707 6.15245 10.625 6.15245H15.9375V3.55877C15.9375 2.87088 16.2174 2.21117 16.7155 1.72476C17.2136 1.23835 17.8893 0.965088 18.5938 0.965088V0.965088ZM10.625 11.3398C9.21604 11.3398 7.86478 11.8863 6.86849 12.8591C5.87221 13.832 5.3125 15.1514 5.3125 16.5272V73.5881C5.3125 74.9639 5.87221 76.2833 6.86849 77.2561C7.86478 78.2289 9.21604 78.7755 10.625 78.7755H74.375C75.784 78.7755 77.1352 78.2289 78.1315 77.2561C79.1278 76.2833 79.6875 74.9639 79.6875 73.5881V16.5272C79.6875 15.1514 79.1278 13.832 78.1315 12.8591C77.1352 11.8863 75.784 11.3398 74.375 11.3398H10.625Z" fill="#B95346"/>
<path d="M13.2812 21.7145C13.2812 21.0266 13.5611 20.3669 14.0592 19.8805C14.5574 19.3941 15.233 19.1208 15.9375 19.1208H69.0625C69.767 19.1208 70.4426 19.3941 70.9408 19.8805C71.4389 20.3669 71.7188 21.0266 71.7188 21.7145V26.9019C71.7188 27.5898 71.4389 28.2495 70.9408 28.7359C70.4426 29.2223 69.767 29.4956 69.0625 29.4956H15.9375C15.233 29.4956 14.5574 29.2223 14.0592 28.7359C13.5611 28.2495 13.2812 27.5898 13.2812 26.9019V21.7145Z" fill="#B95346"/>
</svg>