<?xml version="1.0" encoding="iso-8859-1"?>
<!-- Generator: Adobe Illustrator 18.0.0, SVG Export Plug-In . SVG Version: 6.00 Build 0)  -->
<!DOCTYPE svg PUBLIC "-//W3C//DTD SVG 1.1//EN" "http://www.w3.org/Graphics/SVG/1.1/DTD/svg11.dtd">
<svg version="1.1" id="Capa_1" xmlns="http://www.w3.org/2000/svg" xmlns:xlink="http://www.w3.org/1999/xlink" x="0px" y="0px"
	 viewBox="0 0 442.479 442.479" style="enable-background:new 0 0 442.479 442.479;" xml:space="preserve">
<g>
	<path d="M276.698,270.064c1.838-2.242,2.22-5.343,0.979-7.964s-3.88-4.292-6.779-4.292H7.5c-2.899,0-5.539,1.671-6.779,4.292
		s-0.859,5.721,0.979,7.964l33.632,41.019l7.016,23.635c0.945,3.183,3.87,5.366,7.19,5.366h179.322c3.32,0,6.245-2.183,7.19-5.366
		l7.016-23.635L276.698,270.064z M255.05,272.809l-22.293,27.189H45.641l-22.292-27.189H255.05z M223.263,325.084H55.135
		l-2.994-10.085h174.116L223.263,325.084z"/>
	<path d="M328.682,198.694c19.863,15.013,34.724,36.32,41.845,59.995c0.977,3.246,3.955,5.342,7.179,5.342
		c0.715,0,1.443-0.103,2.164-0.32c3.966-1.193,6.215-5.376,5.021-9.343c-8.032-26.701-24.782-50.722-47.165-67.641
		c-23.147-17.496-50.721-26.744-79.741-26.744c-4.142,0-7.5,3.358-7.5,7.5s3.358,7.5,7.5,7.5
		C283.715,174.983,308.161,183.182,328.682,198.694z"/>
	<path d="M434.979,286.883h-19.613c-2.702-77.041-60.999-140.176-135.916-150.431c1.493-3.109,2.33-6.59,2.33-10.263
		c0-13.12-10.674-23.794-23.794-23.794c-13.12,0-23.794,10.674-23.794,23.794c0,3.666,0.835,7.141,2.322,10.246
		c-24.611,3.347-47.995,12.447-68.574,26.811c-25.884,18.067-45.559,43.119-56.898,72.446c-1.494,3.864,0.428,8.206,4.291,9.7
		c3.861,1.493,8.207-0.427,9.7-4.291c10.258-26.534,28.064-49.202,51.492-65.555c23.959-16.723,52.127-25.563,81.46-25.563
		c76.699,0,139.438,60.909,142.381,136.9H278.587c-4.142,0-7.5,3.358-7.5,7.5s3.358,7.5,7.5,7.5h156.392c4.142,0,7.5-3.358,7.5-7.5
		S439.121,286.883,434.979,286.883z M249.192,126.189c0-4.849,3.945-8.794,8.794-8.794c4.849,0,8.794,3.945,8.794,8.794
		c0,4.849-3.945,8.794-8.794,8.794C253.137,134.983,249.192,131.038,249.192,126.189z"/>
</g>
<g>
</g>
<g>
</g>
<g>
</g>
<g>
</g>
<g>
</g>
<g>
</g>
<g>
</g>
<g>
</g>
<g>
</g>
<g>
</g>
<g>
</g>
<g>
</g>
<g>
</g>
<g>
</g>
<g>
</g>
</svg>
