<svg width="1271" height="652" viewBox="0 0 1271 652" fill="none" xmlns="http://www.w3.org/2000/svg">
<path d="M84 26.0464C84 38.9183 73.3 49.4339 60 49.4339C46.7 49.4339 36 38.9183 36 26.0464C36 13.1744 46.7 2.65881 60 2.65881C73.3 2.65881 84 13.1744 84 26.0464Z" fill="white" stroke="url(#paint0_linear_962_126)" stroke-width="4"/>
<line x1="108.004" y1="324" x2="1162" y2="326" stroke="url(#paint1_linear_962_126)" stroke-width="4"/>
<line x1="85" y1="25.9993" x2="1161" y2="25.9993" stroke="url(#paint2_linear_962_126)" stroke-width="4"/>
<line x1="108.004" y1="324" x2="1162" y2="326" stroke="url(#paint3_linear_962_126)" stroke-width="4"/>
<line x1="110.004" y1="624" x2="1164" y2="626" stroke="url(#paint4_linear_962_126)" stroke-width="4"/>
<path d="M1161.5 326C1227.22 326 1269 255.738 1269 174C1269 92.2619 1226.72 26 1161 26" stroke="#B03842" stroke-width="4"/>
<path d="M109.5 324C43.7781 324 2 394.262 2 476C2 557.738 44.2781 624 110 624" stroke="#B03842" stroke-width="4"/>
<path d="M1211 626.388C1211 639.259 1200.3 649.775 1187 649.775C1173.7 649.775 1163 639.259 1163 626.388C1163 613.516 1173.7 603 1187 603C1200.3 603 1211 613.516 1211 626.388Z" fill="white" stroke="url(#paint5_linear_962_126)" stroke-width="4"/>
<defs>
<linearGradient id="paint0_linear_962_126" x1="34" y1="0.658813" x2="34" y2="51.4339" gradientUnits="userSpaceOnUse">
<stop stop-color="#B03842"/>
<stop offset="1" stop-color="#CB8B4E"/>
</linearGradient>
<linearGradient id="paint1_linear_962_126" x1="108" y1="326" x2="107.998" y2="327" gradientUnits="userSpaceOnUse">
<stop stop-color="#B03842"/>
<stop offset="1" stop-color="#CB8B4E"/>
</linearGradient>
<linearGradient id="paint2_linear_962_126" x1="85" y1="27.9993" x2="85" y2="28.9993" gradientUnits="userSpaceOnUse">
<stop stop-color="#B03842"/>
<stop offset="1" stop-color="#CB8B4E"/>
</linearGradient>
<linearGradient id="paint3_linear_962_126" x1="108" y1="326" x2="107.998" y2="327" gradientUnits="userSpaceOnUse">
<stop stop-color="#B03842"/>
<stop offset="1" stop-color="#CB8B4E"/>
</linearGradient>
<linearGradient id="paint4_linear_962_126" x1="110" y1="626" x2="109.998" y2="627" gradientUnits="userSpaceOnUse">
<stop stop-color="#B03842"/>
<stop offset="1" stop-color="#CB8B4E"/>
</linearGradient>
<linearGradient id="paint5_linear_962_126" x1="1161" y1="601" x2="1161" y2="651.775" gradientUnits="userSpaceOnUse">
<stop stop-color="#B03842"/>
<stop offset="1" stop-color="#CB8B4E"/>
</linearGradient>
</defs>
</svg>
