<?xml version="1.0" encoding="iso-8859-1"?>
<!-- Generator: Adobe Illustrator 16.0.0, SVG Export Plug-In . SVG Version: 6.00 Build 0)  -->
<!DOCTYPE svg PUBLIC "-//W3C//DTD SVG 1.1//EN" "http://www.w3.org/Graphics/SVG/1.1/DTD/svg11.dtd">
<svg version="1.1" id="Capa_1" xmlns="http://www.w3.org/2000/svg" xmlns:xlink="http://www.w3.org/1999/xlink" x="0px" y="0px"
	 width="508.164px" height="508.164px" viewBox="0 0 508.164 508.164" style="enable-background:new 0 0 508.164 508.164;"
	 xml:space="preserve">
<g>
	<path d="M168.708,94.282c-4.488,24.276-20.672,44.404-42.5,54.4h27.404c23.46,0,45.152,13.668,55.284,34.816l38.76,94.86
		c7.48,16.116,5.848,38.012-15.572,48.348c-4.964,2.448-10.336,3.604-15.912,3.604c-14.144,0-27.812-8.024-33.252-19.448
		l-19.72-37.808v79.628h113.765v63.036l-92.005,37.399c-6.936,2.856-10.268,10.812-7.412,17.748c2.108,5.305,7.208,8.5,12.58,8.5
		c1.7,0,3.4-0.34,5.1-1.02l81.737-33.252v29.987c0,7.48,6.119,13.601,13.6,13.601s13.6-6.12,13.6-13.601v-30.124l81.805,32.708
		c7.004,2.788,14.891-0.611,17.68-7.548c2.787-7.004-0.613-14.892-7.549-17.68l-91.936-36.788v-62.968h149.6
		c18.768,0,34-15.232,34-34v-224.4H168.708z M435.199,291.482H278.801v-20.4h156.398V291.482z M435.199,230.282H258.4v-20.4h176.799
		V230.282z M435.199,169.082H231.2v-20.4h203.999V169.082z M508.164,53.21v0.544c0,14.872-12.057,26.928-26.928,26.928H170
		c0-21.44-9.119-40.746-23.623-54.4h334.859C496.107,26.282,508.164,38.338,508.164,53.21z M34,80.682
		c0-33.803,27.397-61.2,61.2-61.2s61.2,27.397,61.2,61.2s-27.397,61.2-61.2,61.2S34,114.485,34,80.682z M226.188,314.473
		c-12.036,5.813-26.669-0.401-31.008-9.493l-45.56-87.489L149.6,453.526c0,14.212-10.397,26.895-24.541,28.233
		c-16.225,1.53-29.859-11.172-29.859-27.077c0,15.905-13.634,28.614-29.859,27.07C51.197,480.414,40.8,467.731,40.8,453.526V311.882
		c0,11.642-9.69,20.964-21.461,20.372C8.303,331.697,0,321.817,0,310.76v-53.278v-47.6c0-26.289,21.312-47.6,47.6-47.6h106.046
		c18.347,0,35.061,10.54,42.956,27.098l38.577,94.458C239.523,292.937,240.951,307.346,226.188,314.473z M34,80.682
		c0-33.803,27.397-61.2,61.2-61.2s61.2,27.397,61.2,61.2s-27.397,61.2-61.2,61.2S34,114.485,34,80.682z M226.188,314.473
		c-12.036,5.813-26.669-0.401-31.008-9.493l-45.56-87.489L149.6,453.526c0,14.212-10.397,26.895-24.541,28.233
		c-16.225,1.53-29.859-11.172-29.859-27.077c0,15.905-13.634,28.614-29.859,27.07C51.197,480.414,40.8,467.731,40.8,453.526V311.882
		c0,11.642-9.69,20.964-21.461,20.372C8.303,331.697,0,321.817,0,310.76v-53.278v-47.6c0-26.289,21.312-47.6,47.6-47.6h106.046
		c18.347,0,35.061,10.54,42.956,27.098l38.577,94.458C239.523,292.937,240.951,307.346,226.188,314.473z"/>
</g>
<g>
</g>
<g>
</g>
<g>
</g>
<g>
</g>
<g>
</g>
<g>
</g>
<g>
</g>
<g>
</g>
<g>
</g>
<g>
</g>
<g>
</g>
<g>
</g>
<g>
</g>
<g>
</g>
<g>
</g>
</svg>
