<svg width="103" height="73" viewBox="0 0 103 73" fill="none" xmlns="http://www.w3.org/2000/svg">
<path d="M95.375 65.0427V57.9025C95.359 47.1657 91.2183 36.8255 83.7713 28.926C76.3243 21.0264 66.1131 16.1424 55.1562 15.2395V7.92076H66.125V0.780518H36.875V7.92076H47.8438V15.2395C36.8869 16.1424 26.6757 21.0264 19.2287 28.926C11.7817 36.8255 7.64098 47.1657 7.625 57.9025V65.0427H0.3125V72.183H102.688V65.0427H95.375ZM51.5 22.2013C59.9244 22.2126 68.0873 25.0595 74.6128 30.262C81.1384 35.4646 85.6276 42.7047 87.3239 50.7622H15.6761C17.3724 42.7047 21.8616 35.4646 28.3872 30.262C34.9127 25.0595 43.0756 22.2126 51.5 22.2013V22.2013ZM14.9375 57.9025H88.0625V65.0427H14.9375V57.9025Z" fill="#B95346"/>
</svg>
