<?xml version='1.0' encoding='iso-8859-1'?>
<!DOCTYPE svg PUBLIC '-//W3C//DTD SVG 1.1//EN' 'http://www.w3.org/Graphics/SVG/1.1/DTD/svg11.dtd'>
<svg version="1.1" xmlns="http://www.w3.org/2000/svg" viewBox="0 0 297 297" xmlns:xlink="http://www.w3.org/1999/xlink" enable-background="new 0 0 297 297">
  <g>
    <path d="M148.505,61.651c16.998,0,30.826-13.828,30.826-30.826C179.331,13.828,165.503,0,148.505,0   c-16.997,0-30.825,13.828-30.825,30.826C117.68,47.823,131.508,61.651,148.505,61.651z"/>
    <path d="m226.59,151.951h-156.18c-4.257,0-7.722,3.464-7.722,7.722v14.621c0,4.257 3.464,7.722 7.722,7.722h156.18c4.257,0 7.722-3.464 7.722-7.722v-14.621c-0.001-4.257-3.465-7.722-7.722-7.722z"/>
    <path d="m198.56,194.348h-100.12c-5.272,0-9.545,4.274-9.545,9.545v84.371c0,4.824 3.911,8.735 8.735,8.735h101.74c4.824,0 8.735-3.911 8.735-8.735v-84.371c-2.84217e-14-5.271-4.273-9.545-9.545-9.545z"/>
    <path d="m208.557,102.373c0-11.73-7.538-22.132-18.686-25.784l-.052-.017-16.304-2.7c-1.388-0.427-2.87,0.308-3.369,1.677l-18.5,50.76c-1.067,2.928-5.209,2.928-6.276,0l-18.5-50.76c-0.403-1.106-1.446-1.799-2.564-1.799-0.265,0-17.109,2.818-17.109,2.818-11.239,3.745-18.748,14.164-18.748,25.945v37.106h120.109v-37.246z"/>
    <path d="m155.571,73.105c-0.747-0.814-1.84-1.224-2.946-1.224h-8.245c-1.105,0-2.198,0.41-2.946,1.224-1.157,1.261-1.325,3.082-0.504,4.505l4.407,6.644-2.063,17.405 4.063,10.808c0.396,1.087 1.933,1.087 2.33,0l4.063-10.808-2.063-17.405 4.407-6.644c0.822-1.423 0.654-3.244-0.503-4.505z"/>
  </g>
</svg>
