<svg width="115" height="89" viewBox="0 0 115 89" fill="none" xmlns="http://www.w3.org/2000/svg">
<path d="M112.125 77.8748H2.875C1.28656 77.8748 0 79.1194 0 80.6561V86.2186C0 87.7552 1.28656 88.9998 2.875 88.9998H112.125C113.713 88.9998 115 87.7552 115 86.2186V80.6561C115 79.1194 113.713 77.8748 112.125 77.8748ZM8.0518 35.7493L23.9973 49.6556C25.3056 50.7985 26.8733 51.6279 28.5739 52.077L80.252 65.6964C85.0102 66.9497 90.0558 67.2122 94.8067 65.9328C100.138 64.4953 102.612 62.246 103.297 59.7254C103.985 57.2049 102.986 54.0395 99.0977 50.1718C95.6333 46.7266 91.1285 44.472 86.3704 43.2187L68.8491 38.6018L50.8156 5.25292C50.5443 4.24298 49.7465 3.4538 48.7205 3.18262L37.0246 0.100651C35.1271 -0.399974 33.2691 1.02542 33.3033 2.95839L41.9139 31.5027L23.5498 26.6633L18.5923 14.8639C18.2455 14.0139 17.5123 13.3742 16.6121 13.1378L9.47313 11.2552C7.61516 10.765 5.78414 12.1243 5.75 14.0156L5.79133 31.7078C5.82547 33.2566 6.87484 34.722 8.0518 35.7493Z" fill="#B95346"/>
</svg>