<?xml version="1.0" encoding="iso-8859-1"?>
<!-- Generator: Adobe Illustrator 18.0.0, SVG Export Plug-In . SVG Version: 6.00 Build 0)  -->
<!DOCTYPE svg PUBLIC "-//W3C//DTD SVG 1.1//EN" "http://www.w3.org/Graphics/SVG/1.1/DTD/svg11.dtd">
<svg version="1.1" id="Capa_1" xmlns="http://www.w3.org/2000/svg" xmlns:xlink="http://www.w3.org/1999/xlink" x="0px" y="0px"
	 viewBox="0 0 459.397 459.397" style="enable-background:new 0 0 459.397 459.397;" xml:space="preserve">
<g id="XMLID_932_">
	<path id="XMLID_939_" d="M443.13,15.549H252.053c-5.581,0-10.105,4.524-10.105,10.105v72.36l19.744-29.267
		c0.151-0.224,0.311-0.437,0.467-0.656V35.759h170.866v237.614H262.158v-90.671c-2.831,2.484-4.516,5.395-10.241,8.95
		c-11.44,16.958-9.191,13.642-9.969,14.733v77.093c0,5.581,4.525,10.105,10.105,10.105h47.739l-27.99,70.757
		c-2.976,7.524,0.71,16.035,8.234,19.011c7.523,2.977,16.033-0.711,19.011-8.234l32.253-81.535h32.582l32.253,81.535
		c2.277,5.755,7.792,9.265,13.626,9.265c1.793,0,3.617-0.332,5.384-1.031c7.524-2.976,11.211-11.487,8.234-19.011l-27.99-70.757
		h47.739c5.581,0,10.105-4.524,10.105-10.105V25.654C453.235,20.073,448.71,15.549,443.13,15.549z"/>
	<path id="XMLID_947_" d="M266.297,134.198l28.904-42.845c3.121-4.626,1.901-10.907-2.726-14.029
		c-4.625-3.12-10.907-1.901-14.029,2.726l-28.779,42.66C256.034,124.841,261.839,128.737,266.297,134.198z"/>
	<circle id="XMLID_949_" cx="99.079" cy="37.811" r="37.811"/>
	<path id="XMLID_950_" d="M253.566,147.68c-5.314-8.559-16.562-11.193-25.123-5.876l-36.95,22.942
		c-0.061-12.088-0.108-21.527-0.172-34.113c-0.118-23.687-19.486-42.958-43.174-42.958c-53.253,0-53.857,0-98.137,0
		c-23.688,0-43.055,19.271-43.174,42.957L6.163,264.665C6.112,274.74,14.239,282.95,24.315,283c0.031,0,0.062,0,0.094,0
		c10.033,0,18.191-8.108,18.242-18.153l0.674-134.033c0-0.001,0-0.001,0-0.002c0.01-1.995,1.634-3.606,3.629-3.6
		c1.995,0.005,3.609,1.625,3.61,3.62l0.008,306.671c0,12.091,9.801,21.893,21.893,21.893s21.893-9.801,21.893-21.893V267.239
		c0-2.61,2.116-4.726,4.726-4.726c2.61,0,4.726,2.116,4.726,4.726v170.266c0,12.091,9.802,21.893,21.893,21.893
		s21.893-9.801,21.893-21.893c-0.439-293.783-0.401-255.025-0.397-306.624c0-2.096,1.69-3.8,3.786-3.818s3.815,1.657,3.85,3.754
		c0-0.001,0,0,0,0c0.089,17.757,0.281,55.836,0.335,66.722c0.072,14.238,15.772,22.919,27.867,15.408l64.654-40.142
		C256.25,167.488,258.881,156.24,253.566,147.68z"/>
</g>
<g>
</g>
<g>
</g>
<g>
</g>
<g>
</g>
<g>
</g>
<g>
</g>
<g>
</g>
<g>
</g>
<g>
</g>
<g>
</g>
<g>
</g>
<g>
</g>
<g>
</g>
<g>
</g>
<g>
</g>
</svg>
