<?xml version="1.0" encoding="iso-8859-1"?>
<!-- Generator: Adobe Illustrator 19.0.0, SVG Export Plug-In . SVG Version: 6.00 Build 0)  -->
<svg version="1.1" id="Layer_1" xmlns="http://www.w3.org/2000/svg" xmlns:xlink="http://www.w3.org/1999/xlink" x="0px" y="0px"
	 viewBox="0 0 300.136 300.136" style="enable-background:new 0 0 300.136 300.136;" xml:space="preserve">
<g>
	<g>
		<path d="M217.742,102.562c14.269-13.819,22.453-33.063,22.453-52.799V9c0-4.971-4.029-9-9-9H68.942c-4.971,0-9,4.029-9,9v40.763
			c0,20.607,9.063,39.97,24.874,53.151l52.765,47.154l-52.765,47.154c-15.811,13.182-24.874,32.544-24.874,53.151v40.763
			c0,4.971,4.029,9,9,9h162.253c4.971,0,9-4.029,9-9v-40.763c0-19.735-8.184-38.979-22.453-52.799
			c-0.086-0.084-0.174-0.166-0.264-0.246l-52.884-47.261l52.884-47.261C217.567,102.728,217.656,102.646,217.742,102.562z
			 M77.942,18h144.252v9.069H77.971c-0.01,0-0.019,0.001-0.029,0.001V18z M222.195,282.137H77.942v-9.724
			c0.01,0,0.019,0.001,0.029,0.001h144.224V282.137z M79.223,254.415l72.095-38.127l69.73,38.127H79.223z M205.343,210.626
			c6.419,6.255,11.18,13.966,13.978,22.329l-63.614-34.783c-2.652-1.451-5.854-1.473-8.525-0.06L80.833,233.2
			c3.006-8.554,8.294-16.167,15.607-22.234c0.085-0.07,0.168-0.143,0.25-0.216l54.396-48.612L205.343,210.626z M151.087,137.999
			l-29.015-25.93h58.03L151.087,137.999z M200.197,94.109c-0.27-0.024-0.542-0.041-0.818-0.041H103.4
			c-0.459,0-0.906,0.045-1.346,0.112l-5.365-4.794c-0.082-0.073-0.166-0.146-0.25-0.216c-11.928-9.896-18.498-23.891-18.498-39.407
			v-4.696c0.01,0,0.019,0.001,0.029,0.001h144.224v4.694c0,14.832-6.14,29.309-16.852,39.748L200.197,94.109z"/>
	</g>
</g>
<g>
</g>
<g>
</g>
<g>
</g>
<g>
</g>
<g>
</g>
<g>
</g>
<g>
</g>
<g>
</g>
<g>
</g>
<g>
</g>
<g>
</g>
<g>
</g>
<g>
</g>
<g>
</g>
<g>
</g>
</svg>
