<?xml version="1.0" encoding="iso-8859-1"?>
<!-- Generator: Adobe Illustrator 18.0.0, SVG Export Plug-In . SVG Version: 6.00 Build 0)  -->
<!DOCTYPE svg PUBLIC "-//W3C//DTD SVG 1.1//EN" "http://www.w3.org/Graphics/SVG/1.1/DTD/svg11.dtd">
<svg version="1.1" id="Capa_1" xmlns="http://www.w3.org/2000/svg" xmlns:xlink="http://www.w3.org/1999/xlink" x="0px" y="0px"
	 viewBox="0 0 457.862 457.862" style="enable-background:new 0 0 457.862 457.862;" xml:space="preserve">
<path id="XMLID_237_" d="M299.796,330.976c-0.178-1.966-0.621-3.898-1.316-5.745l-25.749-68.372l3.609-23.873l-7.449-0.275
	c-16.839-0.622-28.228-12.729-30.863-20.707l-23.391-70.816l40.018,65.324l0,0v0l0.001,0.002c3.08,5.025,8.59,8.466,14.881,8.698
	c31.29,1.154,53.731,2.035,69.087,2.658c4.97,0.202,9.806-1.633,13.395-5.077c3.589-3.444,5.629-8.204,5.629-13.178
	c0-9.876-7.816-17.981-17.685-18.341l-59.307-2.159l0,0l-36.24-59.156l42.789,41.158l5.008-33.132
	c2.245-14.852-7.975-28.712-22.826-30.957l-47.956-7.249c-2.287-0.346-4.55-0.394-6.751-0.177l8.65-33.851
	c5.243,12.551,16.72,22.141,31.152,24.323c21.985,3.323,42.503-11.805,45.826-33.791c3.324-21.985-11.805-42.502-33.79-45.826
	c-20.386-3.082-39.499,9.706-44.823,29.11c-2.93-4.014-7.221-7.072-12.411-8.398L152.214,6.588
	c-11.864-3.031-23.939,4.128-26.97,15.992l-6.281,24.58c-3.032,11.864,4.128,23.939,15.992,26.97l10.09,2.578
	c-7.911,1.946-14.45,8.191-16.355,16.679l-27.934,124.485c-2.681,11.948,4.831,23.807,16.779,26.488l38.367,8.609
	c5.256,1.179,10.493,0.385,14.941-1.891c0.146,2.184,0.621,4.383,1.462,6.529l27.002,68.866l-53.585,69.861
	c-7.357,9.592-5.546,23.332,4.047,30.69c9.6,7.364,23.339,5.536,30.69-4.047l61.106-79.666c4.668-6.086,5.81-14.171,3.01-21.312
	l-23.029-58.731c-0.416-1.061-0.234-2.264,0.477-3.155c0.711-0.891,1.843-1.335,2.971-1.164c1.142,0.173,2.102,0.949,2.509,2.03
	l28.958,76.896l9.038,100.065c1.087,12.033,11.721,20.918,23.769,19.831c12.04-1.087,20.918-11.729,19.831-23.769L299.796,330.976z"
	/>
<g>
</g>
<g>
</g>
<g>
</g>
<g>
</g>
<g>
</g>
<g>
</g>
<g>
</g>
<g>
</g>
<g>
</g>
<g>
</g>
<g>
</g>
<g>
</g>
<g>
</g>
<g>
</g>
<g>
</g>
</svg>
