<svg width="55" height="55" viewBox="0 0 55 55" fill="none" xmlns="http://www.w3.org/2000/svg">
<g clip-path="url(#clip0_86_402)">
<path d="M27.5008 55.0016C42.6891 55.0016 55.0016 42.6891 55.0016 27.5008C55.0016 12.3125 42.6891 0 27.5008 0C12.3125 0 0 12.3125 0 27.5008C0 42.6891 12.3125 55.0016 27.5008 55.0016Z" fill="#8A422D"/>
<path d="M33.6731 29.483H16.9249C15.426 29.483 14.9601 29.0123 14.9553 27.5118C14.9473 24.8915 15.1352 24.7068 17.7892 24.7068H33.4209L33.5382 24.4883L31.2665 22.3147C29.7403 20.8511 28.2141 19.3956 26.6911 17.9208C25.7641 17.0195 25.7769 16.401 26.6991 15.474C26.9063 15.2651 27.1264 15.0691 27.3417 14.8683C28.5803 13.7229 29.0415 13.7228 30.211 14.8924C33.8665 18.5435 37.5192 22.1974 41.1693 25.8538C42.077 26.7631 42.085 27.4282 41.1966 28.3183C37.4694 32.0486 33.7406 35.778 30.0102 39.5062C29.1282 40.3882 28.4599 40.3866 27.5281 39.5175C27.2148 39.2251 26.8855 38.9423 26.5915 38.6371C25.7978 37.8338 25.7994 37.143 26.6108 36.3574C28.8021 34.2336 30.9977 32.114 33.1976 29.9987C33.3052 29.8927 33.4048 29.7738 33.6731 29.483Z" fill="white"/>
</g>
<defs>
<clipPath id="clip0_86_402">
<rect width="55" height="55" fill="white"/>
</clipPath>
</defs>
</svg>
