<?xml version="1.0" encoding="utf-8"?>
<!-- Generator: Adobe Illustrator 24.0.1, SVG Export Plug-In . SVG Version: 6.00 Build 0)  -->
<svg version="1.1" id="Layer_1" xmlns="http://www.w3.org/2000/svg" xmlns:xlink="http://www.w3.org/1999/xlink" x="0px" y="0px"
	 viewBox="0 0 333.7 62.9" style="enable-background:new 0 0 333.7 62.9;" xml:space="preserve">
<style type="text/css">
	.st0{fill:#FFFFFF;}
	.st1{fill:#D1343E;}
	.st2{fill:#025DA4;}
</style>
<title>logo_as</title>
<g>
	<g id="d039d00b-5e3c-4152-ad4d-9b5f3e772eaa">
		
			<image style="overflow:visible;opacity:0.75;enable-background:new    ;" width="347" height="263" xlink:href="3AF7F510.png"  transform="matrix(0.2391 0 0 0.2391 3.832763e-02 0)">
		</image>
		<polygon class="st0" points="32.1,43.6 47.1,43.6 51.7,51.5 72,51.5 54.8,21.5 60.5,21.5 68.8,7 26.1,7 29.5,12.8 7.2,51.5 
			27.6,51.5 		"/>
		<polygon class="st1" points="39.5,30.2 54.1,30.2 47.1,42.4 31.4,42.4 26.9,50.3 9.3,50.3 30.1,14 		"/>
		<polygon class="st2" points="56.2,29 40.1,29 28.2,8.2 45.8,8.2 70,50.3 52.4,50.3 48.2,43 		"/>
		<polygon class="st1" points="54.1,20.3 47.2,8.2 66.8,8.2 59.8,20.3 		"/>
		<path d="M110.3,20.6h2.2v1.3c0,1.8,0.9,2.6,3.9,2.6h7.3c3.4,0,4.4-0.7,4.4-3.3s-0.9-2.8-3.8-2.8h-4.5c-7.2,0-9.6-0.4-9.6-5.2
			s2.4-5,7.2-5h5.1c5.9,0,7.3,1.5,7.3,4.8v0.6h-2.2c0-2.9-0.3-3.4-6.5-3.4h-2.5c-4.6,0-6.2,0.3-6.2,3.2s0.7,2.9,4.3,2.9h7
			c4.6,0,6.5,1.4,6.5,4.4v1.2c0,4.4-3.5,4.8-7,4.8h-6.6c-3.5,0-6.5-0.6-6.5-4.6L110.3,20.6z"/>
		<polygon points="141.4,10.2 132.6,10.2 132.6,8.2 152.6,8.2 152.6,10.2 143.8,10.2 143.8,26.3 141.4,26.3 		"/>
		<polygon points="155.8,8.2 173,8.2 173,10.2 158.2,10.2 158.2,16 172.4,16 172.4,18 158.2,18 158.2,24.3 173.1,24.3 173.1,26.3 
			155.8,26.3 		"/>
		<polygon points="177.2,8.2 194.3,8.2 194.3,10.2 179.5,10.2 179.5,16 193.8,16 193.8,18 179.5,18 179.5,24.3 194.4,24.3 
			194.4,26.3 177.2,26.3 		"/>
		<polygon points="198.5,8.2 200.9,8.2 200.9,24.3 214.5,24.3 214.5,26.3 198.5,26.3 		"/>
		<polygon points="217,8.2 235.2,8.2 235.2,12.5 222.3,12.5 222.3,15.9 234.6,15.9 234.6,20.1 222.3,20.1 222.3,26.3 217,26.3 		"/>
		<polygon points="239.2,8.2 244.6,8.2 244.6,21.6 256.6,21.6 256.6,26.3 239.2,26.3 		"/>
		<path d="M266.7,8.2h7l9.6,18.1h-6l-1.7-3.2h-10.8l-1.6,3.2h-6L266.7,8.2z M266.8,19.2h6.9l-3.5-6.8L266.8,19.2z"/>
		<path d="M285.4,20.4h5.4c0,1.9,0.8,2.1,2.3,2.1h6.6c1.1,0,2.3-0.1,2.3-1.5s-0.6-1.7-7.5-1.7s-9-1-9-5.4s0.3-5.8,7.1-5.8h7.5
			c6.2,0,6.8,2.2,6.8,5.3V14h-5.4c0-1.3-0.1-1.9-2.6-1.9H293c-1.2,0-2,0.4-2,1.4s0.7,1.6,6.4,1.6c8.3,0,10.3,0.5,10.3,5.8
			s-1.6,5.7-8.7,5.7h-6.5c-4.9,0-6.8-1-6.8-4.9L285.4,20.4z"/>
		<polygon points="311.3,8.2 316.6,8.2 316.6,14.6 328,14.6 328,8.2 333.3,8.2 333.3,26.3 328,26.3 328,19.4 316.6,19.4 316.6,26.3 
			311.3,26.3 		"/>
		<polygon points="88.8,46.3 85,40.2 86.7,40.2 89.6,45.1 92.5,40.2 94,40.2 90.2,46.4 90.2,50.3 88.8,50.3 		"/>
		<path d="M102.9,41.3c0.8-0.9,2-1.4,3.3-1.4c2.7,0,4.4,1.8,4.4,5.2s-1,5.4-4.5,5.4s-4.4-2.5-4.4-5.2c-0.1-1.4,0.4-2.9,1.3-4
			 M104,48.4c1.2,1.2,3.1,1.2,4.2,0.1c0,0,0,0,0.1-0.1c0.6-1,0.9-2.1,0.9-3.3c0-2.3-0.7-4-3-4s-3.1,2.1-3.1,4.1
			C103,46.3,103.4,47.5,104,48.4"/>
		<path d="M121.4,40.2v6.3c-0.1,0.6,0.1,1.3,0.4,1.8c0.5,0.7,1.3,1,2.2,1c2.6,0,2.6-2.1,2.6-2.9v-6.2h1.3v6.2c0.1,1-0.2,1.9-0.8,2.7
			c-0.8,0.9-2,1.5-3.2,1.4c-2,0.2-3.8-1.3-4-3.3c0-0.3,0-0.6,0-0.9v-6.1H121.4z"/>
		<path d="M137.9,40.2h3.5c0.8,0,1.5,0.1,2.2,0.5c0.7,0.5,1.1,1.3,1.1,2.1c0,0.7-0.2,1.3-0.7,1.8c-0.3,0.3-0.7,0.6-1.2,0.7
			c0.9,0.3,1.4,0.7,1.5,1.9c0.1,1.1,0.3,2.2,0.6,3.2h-1.4c-0.2-0.9-0.3-1.8-0.4-2.7c-0.2-1.5-0.5-1.9-2.1-1.9h-1.7v4.6H138
			L137.9,40.2z M139.2,44.6h2.1c0.4,0,0.9,0,1.3-0.2c0.5-0.3,0.7-0.8,0.7-1.3c0-1.6-1.4-1.6-1.9-1.6h-2.2V44.6z"/>
		<polygon points="165.5,40.2 172.1,40.2 172.1,41.8 167.6,41.8 167.6,44.2 171.8,44.2 171.8,45.9 167.6,45.9 167.6,48.6 
			172.2,48.6 172.2,50.3 165.5,50.3 		"/>
		<polygon points="181.1,40.2 184.5,40.2 186.6,47.5 188.8,40.2 192.2,40.2 192.2,50.3 190.1,50.3 190.1,41.6 187.4,50.3 
			185.7,50.3 183.1,41.6 183.1,50.3 181.1,50.3 		"/>
		<path d="M203.2,47.1c-0.2,0.9,0.4,1.7,1.3,1.9c0.2,0,0.4,0,0.5,0c1.1,0,1.9-0.6,1.9-1.4s-0.6-1.1-1.9-1.4s-3.6-1.3-3.6-3.1
			s1.1-3.1,3.8-3.1c1.1-0.1,2.2,0.4,2.9,1.2c0.4,0.5,0.6,1.2,0.6,1.9h-2c0-0.8-0.7-1.5-1.5-1.5c0,0-0.1,0-0.1,0
			c-1,0-1.6,0.5-1.6,1.4s0.7,1.1,2.1,1.5s3.4,0.9,3.4,2.9s-1.5,3.3-4.2,3.3s-3.8-2.5-3.8-3.5L203.2,47.1z"/>
		<path d="M229.5,40.2h3.3c1.2,0,2,0.1,2.7,0.8c0.5,0.5,0.7,1.3,0.7,2c0,0.7-0.3,1.5-0.8,2c-0.5,0.5-1.2,0.9-3,0.9h-1.6v4.5h-1.4
			L229.5,40.2z M230.9,44.6h1.6c0.9,0,2.3-0.1,2.3-1.7s-1.3-1.6-2-1.6h-1.9L230.9,44.6z"/>
		<path d="M247,40.2h1.4l4,10.1h-1.5l-1.1-2.6h-4.5l-1.1,2.6h-1.4L247,40.2z M245.8,46.5h3.7l-1.8-5L245.8,46.5z"/>
		<path d="M261.1,40.2h3.5c0.8,0,1.5,0.1,2.2,0.5c0.7,0.5,1.1,1.3,1.1,2.1c0,0.7-0.2,1.3-0.7,1.8c-0.3,0.3-0.7,0.6-1.2,0.7
			c0.9,0.3,1.4,0.7,1.5,1.9c0.1,1.1,0.3,2.2,0.6,3.2h-1.4c-0.2-0.9-0.3-1.8-0.4-2.7c-0.2-1.5-0.5-1.9-2.1-1.9h-1.7v4.6h-1.3
			L261.1,40.2z M262.4,44.6h2.1c0.4,0,0.9,0,1.3-0.2c0.4-0.3,0.7-0.8,0.7-1.3c0-1.6-1.4-1.6-1.9-1.6h-2.1L262.4,44.6z"/>
		<polygon points="279.6,50.3 279.6,41.4 276.3,41.4 276.3,40.2 284.2,40.2 284.2,41.4 280.9,41.4 280.9,50.3 		"/>
		<polygon points="293,40.2 294.9,40.2 299.7,48.5 299.7,40.2 301,40.2 301,50.3 299.2,50.3 294.3,41.7 294.3,50.3 293,50.3 		"/>
		<polygon points="310.7,40.2 316.9,40.2 316.9,41.4 312.1,41.4 312.1,44.5 316.6,44.5 316.6,45.7 312.1,45.7 312.1,49.1 317,49.1 
			317,50.3 310.7,50.3 		"/>
		<path d="M326.6,40.2h3.5c0.8,0,1.5,0.1,2.2,0.5c0.7,0.5,1.1,1.3,1.1,2.1c0,0.7-0.2,1.3-0.7,1.8c-0.3,0.3-0.7,0.6-1.2,0.7
			c0.9,0.3,1.4,0.7,1.5,1.9c0.1,1.1,0.3,2.2,0.6,3.2h-1.4c-0.2-0.9-0.3-1.8-0.4-2.7c-0.2-1.5-0.5-1.9-2.1-1.9H328v4.6h-1.3
			L326.6,40.2z M327.9,44.6h2.1c0.4,0,0.9,0,1.3-0.2c0.4-0.3,0.7-0.8,0.7-1.3c0-1.6-1.4-1.6-1.9-1.6H328L327.9,44.6z"/>
		<path d="M93.9,8.2h2.9l10.4,18.1h-2.7l-2.2-3.8h-14l-2.2,3.8h-2.6L93.9,8.2z M95.4,10.2l-5.9,10.3h11.7L95.4,10.2z"/>
	</g>
</g>
</svg>
